<?xml version="1.0" encoding="UTF-8"?>
<svg width="171px" height="172px" viewBox="0 0 171 172" version="1.1" xmlns="http://www.w3.org/2000/svg" xmlns:xlink="http://www.w3.org/1999/xlink">
    <!-- Generator: Sketch 53 (72520) - https://sketchapp.com -->
    <title>Logo black@2x</title>
    <desc>Created with Sketch.</desc>
    <g id="Page-1" stroke="none" stroke-width="1" fill="none" fill-rule="evenodd">
        <g id="Logo-black" transform="translate(0.000000, -89.000000)" fill="#ffffff" fill-rule="nonzero">
            <path d="M156.72055,127.135001 C154.147841,126.598877 151.48183,126.317073 148.75,126.317073 C127.281614,126.317073 109.878049,143.720639 109.878049,165.189024 C109.878049,186.65741 127.281614,204.060976 148.75,204.060976 C155.503237,204.060976 161.85425,202.338856 167.387846,199.309812 C162.981644,213.879968 154.792384,226.80747 143.962655,236.94973 L130.952707,207.054178 C126.849352,205.558705 123.864487,204.293195 121.998114,203.25765 C120.13174,202.222104 117.678582,200.470362 114.63864,198.002422 L79.9128564,208.44691 C75.2691748,209.405363 71.8502693,209.88459 69.6561399,209.88459 C67.4620104,209.88459 64.6405008,209.17287 61.1916109,207.749429 L50.0723508,202.148601 C50.9739854,199.928442 51.8086228,198.209431 52.5762629,196.99157 C53.343903,195.773708 54.5029242,193.997348 56.0533266,191.66249 L56.6858393,176.252554 C53.9045287,173.717171 51.7000325,171.887044 50.0723508,170.762174 C48.444669,169.637304 46.3508039,168.496888 43.7907552,167.340927 C43.6388316,162.475986 43.6388316,158.826819 43.7907552,156.393427 C43.9426788,153.960034 44.38655,150.499624 45.1223689,146.012195 C43.0873013,146.273497 41.4036841,146.604355 40.0715172,147.004768 C39.3729824,147.214729 37.6296359,148.29872 36.2562413,149.689982 C35.4257153,150.531313 34.0878673,152.50109 32.2426972,155.599315 C29.4216162,174.700956 28.4551978,188.835325 29.3434419,198.002422 C30.2316861,207.169519 32.5359525,214.380831 36.2562413,219.636359 C43.2478336,229.337736 51.5596234,234.913147 61.1916109,236.36259 C70.8235984,237.812033 87.5255235,234.842874 111.297386,227.455114 L111.297386,256.082612 C103.162552,258.651274 94.5022009,260.036585 85.5182927,260.036585 C38.2878438,260.036585 0,221.748742 0,174.518293 C0,127.287844 38.2878438,89 85.5182927,89 C95.4869377,89 105.057208,90.7056465 113.953185,93.8410216 C110.600448,100.053095 108.326163,104.256489 107.13033,106.451203 C104.413293,111.437785 102.683712,114.145986 103.224013,114.458055 C104.153209,114.994743 96.3930566,111.546258 79.9435557,104.112599 C68.3982427,113.196389 60.5902155,121.402391 56.519474,128.730603 C52.4487325,136.058815 49.1576883,147.868548 46.6463415,164.159801 L67.324756,177.995668 L55.2631591,200.14523 L61.180917,204.060976 L119.744445,96.1241014 C134.845314,102.7263 147.671272,113.563856 156.72055,127.135001 L156.72055,127.135001 Z M170,176.073171 C169.286282,178.688612 168.559302,180.638186 167.81906,181.921893 C167.078818,183.2056 165.627026,185.034391 163.463686,187.408266 C160.057961,190.167142 157.384598,191.899339 155.443597,192.604859 C153.502597,193.310379 150.593059,193.6738 146.714984,193.695122 C143.738249,192.746221 141.459276,191.748097 139.878063,190.700748 C138.29685,189.653399 136.244,187.894528 133.719512,185.424134 C141.677065,184.835546 147.689663,184.200224 151.757307,183.518169 C155.824951,182.836113 161.905849,180.354447 170,176.073171 Z" id="Combined-Shape"></path>
        </g>
    </g>
</svg>